PathFileType	4	(X/Y/Z)	c:/Users/goper/Files/vsCode/490R/osim_files/A03/A03_Static01.trc
DataRate	CameraRate	NumFrames	NumMarkers	Units                	OrigDataRate	OrigDataStartFrame	OrigNumFrames
250.00	250.00	6	36	mm	250.0	628	1674
                Frame#	Time	LPSIS			LASIS			LTH1			LTH2			LTH3			LTH4			LLFE			LMFE			LSH1			LSH2			LSH3			LSH4			LLMAL			LMMAL			LCAL			LMTP5			LTOE			LMTP1			RPSIS			RASIS			RTH1			RTH2			RTH3			RTH4			RLFE			RMFE			RSH1			RSH2			RSH3			RSH4			RLMAL			RMMAL			RCAL			RMTP1			RTOE			RMTP5		
		X1	Y1	Z1	X2	Y2	Z2	X3	Y3	Z3	X4	Y4	Z4	X5	Y5	Z5	X6	Y6	Z6	X7	Y7	Z7	X8	Y8	Z8	X9	Y9	Z9	X10	Y10	Z10	X11	Y11	Z11	X12	Y12	Z12	X13	Y13	Z13	X14	Y14	Z14	X15	Y15	Z15	X16	Y16	Z16	X17	Y17	Z17	X18	Y18	Z18	X19	Y19	Z19	X20	Y20	Z20	X21	Y21	Z21	X22	Y22	Z22	X23	Y23	Z23	X24	Y24	Z24	X25	Y25	Z25	X26	Y26	Z26	X27	Y27	Z27	X28	Y28	Z28	X29	Y29	Z29	X30	Y30	Z30	X31	Y31	Z31	X32	Y32	Z32	X33	Y33	Z33	X34	Y34	Z34	X35	Y35	Z35	X36	Y36	Z36

628	2.50800	-359.09161	1066.82178	425.84164	-118.14539	990.35510	315.29300	-181.61737	660.19574	240.71039	-173.31532	617.53522	239.69153	-120.02115	664.98364	252.47800	-121.46706	621.08429	251.05901	-169.08823	561.14990	243.78018	-139.68031	530.99432	395.59665	-226.15317	478.79398	238.85832	-231.71158	430.52539	235.08685	-165.08943	463.79166	237.62825	-181.09225	418.65646	238.06129	-282.87640	105.46452	229.78302	-263.16370	105.16751	322.30408	-349.54745	86.06761	288.31497	-139.04482	41.88111	197.70236	-101.21337	68.52565	263.85687	-126.89513	48.15941	311.41565	-361.06909	1068.76111	494.45529	-127.01611	989.50885	623.19135	-229.01183	661.05670	693.40179	-226.86501	616.37408	689.89813	-168.69276	657.22290	700.72919	-173.58739	613.26270	696.20563	-202.79536	549.32861	684.86365	-141.63446	541.70026	573.24207	-260.16956	487.15988	680.77039	-269.17819	448.89886	697.25671	-202.24123	475.08737	699.16229	-220.42216	433.62411	712.70709	-282.33643	129.60472	701.60748	-231.32095	118.25391	623.15070	-333.06027	86.97231	647.30194	-120.57003	49.89174	630.09399	-95.66106	71.56206	680.86298	-133.53607	40.87846	747.87952
629	2.51200	-359.12442	1066.82263	425.83136	-118.17188	990.36945	315.32565	-181.67555	660.21106	240.76057	-173.35628	617.52148	239.74409	-120.06800	664.98358	252.51721	-121.53790	621.07129	251.10318	-169.11569	561.16022	243.81548	-139.75426	530.98511	395.64139	-226.19040	478.77338	238.89650	-231.73933	430.52673	235.13945	-165.11882	463.80521	237.67752	-181.11374	418.65817	238.08589	-282.89014	105.46708	229.80017	-263.20728	105.17644	322.31815	-349.54849	86.03406	288.32147	-139.04712	41.88473	197.70399	-101.31167	68.49721	263.86337	-126.93459	48.16575	311.41666	-361.07166	1068.76025	494.46671	-127.08244	989.51147	623.23352	-229.06496	661.07770	693.42303	-226.93443	616.40906	689.91382	-168.78006	657.23041	700.74420	-173.64015	613.27295	696.21613	-202.85403	549.36407	684.87256	-141.64531	541.70984	573.27020	-260.23392	487.18338	680.78790	-269.26581	448.91278	697.27069	-202.29536	475.08936	699.19165	-220.50235	433.65070	712.72614	-282.21109	129.55693	701.51660	-231.30695	118.26009	623.15387	-333.13504	87.01884	647.31714	-120.58250	49.90065	630.08093	-95.69299	71.57549	680.86609	-133.58250	40.89468	747.86060
630	2.51600	-359.12473	1066.81763	425.84952	-118.21130	990.34723	315.36108	-181.70389	660.19806	240.81459	-173.39130	617.52948	239.78703	-120.08082	664.99701	252.56749	-121.55152	621.09277	251.13974	-169.16820	561.15796	243.86714	-140.38054	530.75024	395.59949	-226.21730	478.79105	238.94408	-231.76488	430.52405	235.16963	-165.16217	463.81146	237.71330	-181.12589	418.67706	238.12195	-282.90900	105.46669	229.81801	-263.27371	105.19418	322.32040	-349.56552	86.04473	288.31567	-138.85590	42.00911	197.67589	-101.31881	68.54818	263.82715	-126.93123	48.16484	311.41162	-361.15384	1068.76514	494.50208	-127.12628	989.56073	623.26685	-229.14999	661.11127	693.41565	-227.00914	616.43359	689.92334	-168.82152	657.26562	700.77301	-173.67744	613.30927	696.23511	-202.92403	549.39178	684.91351	-141.67577	541.69226	573.29230	-260.29227	487.21878	680.79663	-269.30109	448.94382	697.27606	-202.34731	475.12061	699.20660	-220.54436	433.66452	712.74274	-282.40314	129.65379	701.63074	-231.33984	118.25457	623.16345	-333.18872	87.04763	647.32458	-120.74599	49.85504	630.09851	-95.70728	71.57953	680.87012	-133.61223	40.89717	747.87054
631	2.52000	-359.17294	1066.84204	425.89246	-118.21557	990.37201	315.40536	-181.74213	660.20575	240.83734	-173.41212	617.53522	239.82861	-120.12537	664.98907	252.60707	-121.56786	621.10535	251.18701	-169.20186	561.16785	243.93094	-139.86162	531.02655	395.71573	-226.22870	478.79514	238.97372	-231.79002	430.52383	235.20137	-165.19711	463.79752	237.74925	-181.17943	418.68320	238.16866	-282.88428	105.45499	229.81999	-263.26410	105.20699	322.31107	-349.56668	86.05689	288.32675	-139.04654	41.89103	197.69775	-101.30671	68.57952	263.82083	-126.93016	48.19337	311.40671	-361.16226	1068.77722	494.50323	-127.16245	989.55426	623.28687	-229.17860	661.13129	693.43939	-227.06429	616.45386	689.94067	-168.87259	657.29321	700.78485	-173.71082	613.33502	696.24139	-202.96687	549.40967	684.93005	-141.68425	541.72498	573.32111	-260.32986	487.26495	680.80707	-269.34479	448.94968	697.27045	-202.37814	475.12506	699.21930	-220.49609	433.63159	712.77173	-282.44510	129.65250	701.59326	-231.36806	118.24880	623.16370	-333.17432	87.04844	647.29144	-120.63219	49.93761	630.06012	-95.73074	71.58646	680.85205	-133.61169	40.92028	747.88556
632	2.52400	-359.15527	1066.82703	425.90265	-118.22244	990.37268	315.41772	-181.74644	660.19641	240.85817	-173.43958	617.53583	239.86818	-120.15218	664.98975	252.64488	-121.60747	621.08978	251.23027	-169.25346	561.18097	243.97565	-140.41679	530.78900	395.66675	-226.25693	478.78821	239.01082	-231.83130	430.53055	235.26126	-165.22154	463.81323	237.78348	-181.18196	418.67355	238.18867	-282.89307	105.45930	229.82309	-263.23132	105.22086	322.29697	-349.54437	86.01048	288.33820	-139.03296	41.89874	197.70346	-101.25880	68.61305	263.79855	-126.92475	48.19742	311.40308	-361.15656	1068.78113	494.50360	-127.15109	989.58447	623.31415	-229.15878	661.13049	693.46033	-227.04317	616.46771	689.95349	-168.83537	657.32819	700.79358	-173.67177	613.37299	696.26440	-202.92522	549.40350	684.94177	-141.68851	541.73810	573.36951	-260.29425	487.25598	680.83221	-269.30692	448.95453	697.30188	-202.34154	475.14697	699.24493	-220.49736	433.63730	712.79266	-282.41803	129.66096	701.59052	-231.35486	118.25732	623.16315	-333.14471	87.08118	647.27588	-120.58344	49.95241	630.05334	-95.71386	71.61946	680.83282	-133.58986	40.93608	747.86090
633	2.52800	-359.20578	1066.83789	425.92526	-118.23959	990.36304	315.45825	-181.78302	660.20728	240.90565	-173.47926	617.52655	239.90466	-120.17059	664.98486	252.68385	-121.62917	621.08636	251.27209	-169.27295	561.18219	244.01096	-140.41994	530.80847	395.69489	-226.28500	478.79727	239.04527	-231.85899	430.53409	235.27328	-165.23694	463.81543	237.82098	-181.22319	418.66876	238.22028	-282.89319	105.46490	229.80934	-263.18976	105.20036	322.29590	-349.58810	86.03859	288.33636	-139.04002	41.90259	197.71741	-101.18984	68.65604	263.79578	-126.88497	48.21207	311.38361	-361.21484	1068.78784	494.54761	-127.14577	989.59827	623.32642	-229.14044	661.12958	693.46185	-226.99342	616.44995	689.96637	-168.79469	657.35260	700.82355	-173.63733	613.38867	696.28198	-202.86533	549.41687	684.92706	-141.70381	541.72754	573.38965	-260.30002	487.24081	680.84271	-269.28021	448.95331	697.31726	-202.28294	475.16357	699.25531	-220.48584	433.64169	712.82452	-282.35736	129.66573	701.59277	-231.34235	118.26433	623.17688	-333.10770	87.08043	647.25848	-120.57214	49.96308	630.03796	-95.65884	71.64026	680.82349	-133.54561	40.93930	747.84918
